<?xml version="1.0" encoding="UTF-8"?>
<svg xmlns="http://www.w3.org/2000/svg" viewBox="0 0 1140 660" font-family="ui-monospace, SFMono-Regular, Menlo, Consolas, monospace">
  <rect width="1140" height="660" fill="#0d1117"/>

  <text x="570" y="28" text-anchor="middle" fill="#58a6ff" font-size="15" font-weight="bold">FermentDial — Wiring</text>

  <!-- ════════ DS18B20 adapter ════════ -->
  <rect x="40" y="175" width="195" height="165" rx="8" fill="#161b22" stroke="#30363d" stroke-width="1.5"/>
  <text x="137" y="201" text-anchor="middle" fill="#c9d1d9" font-size="12" font-weight="bold">DS18B20 adapter</text>
  <text x="137" y="333" text-anchor="middle" fill="#8b949e" font-size="9">built-in 4.7 kΩ pull-up (472)</text>
  <text x="228" y="228" text-anchor="end" fill="#8b949e" font-size="9">GND</text>
  <text x="228" y="288" text-anchor="end" fill="#8b949e" font-size="9">DATA</text>
  <text x="228" y="318" text-anchor="end" fill="#8b949e" font-size="9">VCC</text>

  <!-- warning -->
  <rect x="40" y="355" width="195" height="86" rx="8" fill="#161b22" stroke="#d29922"/>
  <text x="137" y="376" text-anchor="middle" fill="#e3b341" font-size="11" font-weight="bold">⚠ 3.3 V max</text>
  <text x="137" y="394" text-anchor="middle" fill="#d29922" font-size="10">GPIO13 is not 5 V-tolerant.</text>
  <text x="137" y="410" text-anchor="middle" fill="#d29922" font-size="10">Power the sensor from G15,</text>
  <text x="137" y="426" text-anchor="middle" fill="#d29922" font-size="10">never from the red 5 V wire.</text>

  <!-- ════════ sensor wires (PORT.A) ════════ -->
  <line x1="235" y1="225" x2="380" y2="225" stroke="#6e7681" stroke-width="2"/>
  <line x1="235" y1="285" x2="380" y2="285" stroke="#f5c518" stroke-width="2"/>
  <line x1="235" y1="315" x2="380" y2="315" stroke="#e6edf3" stroke-width="2"/>
  <text x="307" y="219" text-anchor="middle" fill="#8b949e" font-size="10">black · GND</text>
  <text x="307" y="279" text-anchor="middle" fill="#f5c518" font-size="10">yellow · DATA</text>
  <text x="307" y="309" text-anchor="middle" fill="#e6edf3" font-size="10">white · 3.3 V</text>
  <line x1="370" y1="255" x2="380" y2="255" stroke="#6e7681" stroke-width="2" opacity="0.5"/>
  <text x="364" y="258" text-anchor="end" fill="#6e7681" font-size="9">5 V — not used</text>

  <!-- ════════ M5Stack Dial ════════ -->
  <rect x="380" y="140" width="240" height="260" rx="14" fill="#161b22" stroke="#30363d" stroke-width="1.5"/>
  <circle cx="500" cy="270" r="78" fill="#0d1117" stroke="#30363d" stroke-width="1.5"/>
  <text x="500" y="258" text-anchor="middle" fill="#c9d1d9" font-size="13" font-weight="bold">M5Stack Dial</text>
  <text x="500" y="276" text-anchor="middle" fill="#8b949e" font-size="10">ESP32-S3</text>
  <text x="500" y="294" text-anchor="middle" fill="#8b949e" font-size="9">rear 6–36 V power</text>

  <text x="390" y="205" fill="#58a6ff" font-size="9" font-weight="bold">PORT.A</text>
  <text x="390" y="228" fill="#8b949e" font-size="9">GND</text>
  <text x="390" y="258" fill="#8b949e" font-size="9">5 V</text>
  <text x="390" y="288" fill="#8b949e" font-size="9">G13</text>
  <text x="390" y="318" fill="#8b949e" font-size="9">G15</text>

  <text x="610" y="205" text-anchor="end" fill="#58a6ff" font-size="9" font-weight="bold">PORT.B</text>
  <text x="610" y="228" text-anchor="end" fill="#8b949e" font-size="9">G2</text>
  <text x="610" y="258" text-anchor="end" fill="#8b949e" font-size="9">G1</text>
  <text x="610" y="288" text-anchor="end" fill="#8b949e" font-size="9">GND</text>
  <text x="610" y="318" text-anchor="end" fill="#6e7681" font-size="9">5 V</text>
  <line x1="620" y1="315" x2="630" y2="315" stroke="#6e7681" stroke-width="2" opacity="0.5"/>
  <text x="636" y="318" fill="#6e7681" font-size="9">not used</text>

  <!-- Dial rear power from +12 V bus -->
  <polyline points="500,140 500,95 700,95 700,135 905,135" fill="none" stroke="#f85149" stroke-width="2"/>
  <text x="600" y="89" text-anchor="middle" fill="#f85149" font-size="9">Dial VIN + ← +12 V bus</text>
  <polyline points="460,400 460,575 700,575" fill="none" stroke="#6e7681" stroke-width="2"/>
  <text x="468" y="560" fill="#8b949e" font-size="9">Dial GND −</text>

  <!-- ════════ trigger wires (PORT.B) ════════ -->
  <line x1="620" y1="225" x2="785" y2="225" stroke="#f5c518" stroke-width="2"/>
  <text x="702" y="219" text-anchor="middle" fill="#f5c518" font-size="10">yellow · G2 (heater)</text>

  <polyline points="620,255 745,255 745,455 785,455" fill="none" stroke="#e6edf3" stroke-width="2"/>
  <text x="678" y="249" text-anchor="middle" fill="#e6edf3" font-size="10">white · G1 (pump)</text>

  <line x1="620" y1="285" x2="700" y2="285" stroke="#6e7681" stroke-width="2"/>
  <text x="660" y="279" text-anchor="middle" fill="#8b949e" font-size="10">black · GND</text>
  <line x1="700" y1="285" x2="700" y2="575" stroke="#6e7681" stroke-width="2"/>
  <circle cx="700" cy="295" r="3.5" fill="#6e7681"/>

  <!-- ════════ heater chain ════════ -->
  <rect x="785" y="105" width="120" height="50" rx="8" fill="#161b22" stroke="#30363d" stroke-width="1.5"/>
  <text x="845" y="126" text-anchor="middle" fill="#c9d1d9" font-size="12" font-weight="bold">Heater pad</text>
  <text x="845" y="142" text-anchor="middle" fill="#8b949e" font-size="9">12 V</text>
  <text x="898" y="139" text-anchor="end" fill="#f85149" font-size="10" font-weight="bold">+</text>

  <line x1="845" y1="155" x2="845" y2="190" stroke="#6e7681" stroke-width="2"/>
  <text x="853" y="171" fill="#6e7681" font-size="9">−</text>

  <rect x="785" y="190" width="120" height="70" rx="8" fill="#161b22" stroke="#30363d" stroke-width="1.5"/>
  <text x="845" y="217" text-anchor="middle" fill="#c9d1d9" font-size="11" font-weight="bold">MOSFET module</text>
  <text x="845" y="233" text-anchor="middle" fill="#8b949e" font-size="9">AOD4184 · trig = HIGH</text>
  <text x="791" y="221" fill="#6e7681" font-size="8">G</text>
  <text x="850" y="201" fill="#6e7681" font-size="8">D</text>
  <text x="850" y="255" fill="#6e7681" font-size="8">S</text>

  <!-- heater source → GND (hop over white wire) -->
  <path d="M 845 260 V 295 H 751 A 6 6 0 0 0 739 295 H 700" fill="none" stroke="#6e7681" stroke-width="2"/>

  <!-- ════════ pump chain ════════ -->
  <rect x="785" y="330" width="120" height="50" rx="8" fill="#161b22" stroke="#30363d" stroke-width="1.5"/>
  <text x="845" y="351" text-anchor="middle" fill="#c9d1d9" font-size="12" font-weight="bold">Cooling pump</text>
  <text x="845" y="367" text-anchor="middle" fill="#8b949e" font-size="9">12 V</text>
  <text x="898" y="359" text-anchor="end" fill="#f85149" font-size="10" font-weight="bold">+</text>

  <line x1="845" y1="380" x2="845" y2="420" stroke="#6e7681" stroke-width="2"/>
  <text x="853" y="399" fill="#6e7681" font-size="9">−</text>

  <rect x="785" y="420" width="120" height="70" rx="8" fill="#161b22" stroke="#30363d" stroke-width="1.5"/>
  <text x="845" y="447" text-anchor="middle" fill="#c9d1d9" font-size="11" font-weight="bold">MOSFET module</text>
  <text x="845" y="463" text-anchor="middle" fill="#8b949e" font-size="9">AOD4184 · trig = HIGH</text>
  <text x="791" y="451" fill="#6e7681" font-size="8">G</text>
  <text x="850" y="431" fill="#6e7681" font-size="8">D</text>
  <text x="850" y="485" fill="#6e7681" font-size="8">S</text>

  <line x1="845" y1="490" x2="845" y2="575" stroke="#6e7681" stroke-width="2"/>
  <circle cx="845" cy="575" r="3.5" fill="#6e7681"/>

  <!-- flyback diode D1 across the pump -->
  <line x1="845" y1="400" x2="915" y2="400" stroke="#6e7681" stroke-width="2"/>
  <circle cx="845" cy="400" r="3.5" fill="#6e7681"/>
  <line x1="915" y1="400" x2="915" y2="355" stroke="#6e7681" stroke-width="2"/>
  <circle cx="915" cy="355" r="3.5" fill="#f85149"/>
  <polygon points="909,386 921,386 915,375" fill="#6e7681"/>
  <line x1="909" y1="372" x2="921" y2="372" stroke="#6e7681" stroke-width="2"/>
  <text x="908" y="415" text-anchor="end" fill="#8b949e" font-size="9">D1</text>

  <!-- ════════ 12 V supply, fuse, SPST switch, bus ════════ -->
  <rect x="785" y="40" width="120" height="40" rx="8" fill="#161b22" stroke="#30363d" stroke-width="1.5"/>
  <text x="845" y="58" text-anchor="middle" fill="#c9d1d9" font-size="11" font-weight="bold">12 V DC supply</text>
  <text x="899" y="72" text-anchor="end" fill="#f85149" font-size="10" font-weight="bold">+</text>
  <text x="913" y="50" text-anchor="middle" fill="#8b949e" font-size="10" font-weight="bold">−</text>

  <!-- + from PSU to fuse -->
  <line x1="905" y1="68" x2="925" y2="68" stroke="#f85149" stroke-width="2"/>
  <!-- fuse -->
  <rect x="925" y="61" width="18" height="14" rx="3" fill="#0d1117" stroke="#d29922" stroke-width="1.5"/>
  <text x="934" y="90" text-anchor="middle" fill="#d29922" font-size="8">7.5 A</text>
  <!-- fuse out to switch -->
  <line x1="943" y1="68" x2="975" y2="68" stroke="#f85149" stroke-width="2"/>
  <!-- SPST rocker switch (2-pin) -->
  <rect x="975" y="54" width="56" height="28" rx="4" fill="#161b22" stroke="#58a6ff" stroke-width="1.5"/>
  <text x="1003" y="66" text-anchor="middle" fill="#58a6ff" font-size="8" font-weight="bold">SPST</text>
  <text x="1003" y="77" text-anchor="middle" fill="#8b949e" font-size="7">ON/OFF</text>
  <!-- switch out → +12 V bus -->
  <polyline points="1031,68 1050,68 1050,355" fill="none" stroke="#f85149" stroke-width="2"/>
  <text transform="rotate(-90 1069 245)" x="1069" y="245" text-anchor="middle" fill="#f85149" font-size="9">+12 V bus</text>

  <!-- bus taps: heater + / Dial VIN, pump + -->
  <line x1="1050" y1="135" x2="905" y2="135" stroke="#f85149" stroke-width="2"/>
  <circle cx="1050" cy="135" r="3.5" fill="#f85149"/>
  <circle cx="905" cy="135" r="3.5" fill="#f85149"/>
  <line x1="1050" y1="355" x2="905" y2="355" stroke="#f85149" stroke-width="2"/>

  <!-- PSU − to common GND -->
  <polyline points="905,50 1095,50 1095,575" fill="none" stroke="#6e7681" stroke-width="2"/>

  <!-- ════════ common ground rail ════════ -->
  <line x1="460" y1="575" x2="1095" y2="575" stroke="#6e7681" stroke-width="2.5"/>
  <text x="702" y="567" fill="#8b949e" font-size="10">common GND</text>

  <!-- footnotes -->
  <text x="40" y="600" fill="#8b949e" font-size="10">D1 — flyback diode across the pump (stripe toward +12 V); recommended for inductive loads.</text>
  <text x="40" y="618" fill="#8b949e" font-size="10">Power path: PSU + → 7.5 A fuse → SPST 2-pin rocker (on + only) → +12 V bus → heater +, pump +, Dial VIN.</text>
  <text x="40" y="636" fill="#8b949e" font-size="10">Dial power: rear 6–36 V screw terminal from the +12 V bus (USB-C optional for flashing only). PSU − → common GND (not switched).</text>
  <text x="40" y="654" fill="#8b949e" font-size="10">SPST switch leads are series on +; either color is fine — do not treat switch black as system ground.</text>
</svg>
